<svg xmlns="http://www.w3.org/2000/svg" version="1.1" xmlns:xlink="http://www.w3.org/1999/xlink" xmlns:svgjs="http://svgjs.dev/svgjs" width="1500" height="1500" viewBox="0 0 1500 1500"><rect width="1500" height="1500" fill="#ffffff"></rect><g transform="matrix(0.6666666666666666,0,0,0.6666666666666666,249.39393939393938,438.5856950067477)"><svg viewBox="0 0 396 247" data-background-color="#d70707" preserveAspectRatio="xMidYMid meet" height="935" width="1500" xmlns="http://www.w3.org/2000/svg" xmlns:xlink="http://www.w3.org/1999/xlink"><g id="tight-bounds" transform="matrix(1,0,0,1,0.2400000000000091,-0.09999999999999432)"><svg viewBox="0 0 395.52 247.2" height="247.2" width="395.52"><g><svg></svg></g><g><svg viewBox="0 0 395.52 247.2" height="247.2" width="395.52"><mask id="c0d7b809-3b89-41b5-8a6f-d3db468ac4bb"><rect width="640" height="400" fill="white"></rect><g transform="matrix(1,0,0,1,39.55199999999999,70.68006696038897)"><svg viewBox="0 0 316.416 105.83986607922205" height="105.83986607922205" width="316.416"><g><svg viewBox="0 0 316.416 105.83986607922205" height="105.83986607922205" width="316.416"><g><svg viewBox="0 0 316.416 105.83986607922205" height="105.83986607922205" width="316.416"><g><svg viewBox="0 0 316.416 105.83986607922205" height="105.83986607922205" width="316.416"><g id="SvgjsG1498"><svg viewBox="0 0 316.416 105.83986607922205" height="105.83986607922205" width="316.416" id="SvgjsSvg1497"><g><svg viewBox="0 0 316.416 61.21905996758509" height="61.21905996758509" width="316.416"><g transform="matrix(1,0,0,1,0,0)"><svg width="316.416" viewBox="0 -44.45 247.78 48.75" height="61.21905996758509" data-palette-color="#ffdc00"><path d="M25.15-2.1L25.15-37.55Q25.15-39.95 28.1-39.95L28.1-39.95Q31.1-39.95 31.1-37.55L31.1-37.55 31.1-2.1Q31.1 0.3 28.1 0.3L28.1 0.3Q25.15 0.3 25.15-2.1L25.15-2.1ZM9.95-37.55L9.95-2.1Q9.95 0.3 6.95 0.3L6.95 0.3Q4 0.3 4-2.1L4-2.1 4-37.55Q4-39.95 6.95-39.95L6.95-39.95Q9.95-39.95 9.95-37.55L9.95-37.55ZM21.65-20.65L21.65-20.65Q21.65-18.9 20.45-17.7 19.25-16.5 17.5-16.5L17.5-16.5Q15.8-16.5 14.6-17.7 13.4-18.9 13.4-20.65L13.4-20.65Q13.4-22.4 14.6-23.6 15.8-24.8 17.5-24.8L17.5-24.8Q19.25-24.8 20.45-23.6 21.65-22.4 21.65-20.65ZM43.6-27.9L43.6-2.1Q43.6 0.3 40.85 0.3L40.85 0.3Q38.05 0.3 38.05-2.1L38.05-2.1 38.05-27.9Q38.05-30.3 40.85-30.3L40.85-30.3Q43.6-30.3 43.6-27.9L43.6-27.9ZM44.65-36.6L44.65-36.6Q44.65-35 43.55-33.9 42.45-32.8 40.85-32.8L40.85-32.8Q39.25-32.8 38.12-33.9 37-35 37-36.6L37-36.6Q37-38.25 38.12-39.35 39.25-40.45 40.85-40.45L40.85-40.45Q42.45-40.45 43.55-39.35 44.65-38.25 44.65-36.6ZM56.05-22.15L56.05-8Q56.05-6.8 56.82-5.75 57.6-4.7 59.45-4.7L59.45-4.7 65.7-4.7Q67.55-4.7 68.32-5.63 69.09-6.55 69.09-7.75L69.09-7.75 69.09-8.3Q69.09-10.65 71.84-10.65L71.84-10.65Q74.59-10.65 74.59-8.3L74.59-8.3 74.59-7.7Q74.59-5.6 73.92-4.25 73.25-2.9 71.9-1.9L71.9-1.9Q69.25 0 66.59 0L66.59 0 58.2 0Q55.55 0 53.05-1.9L53.05-1.9Q51.85-2.9 51.2-4.42 50.55-5.95 50.55-7.95L50.55-7.95 50.55-22.2Q50.55-26.25 53.05-28.2L53.05-28.2Q54.3-29.1 55.62-29.63 56.95-30.15 58.2-30.15L58.2-30.15 66.59-30.15Q67.8-30.15 69.25-29.68 70.7-29.2 71.95-28.4L71.95-28.4Q73.15-27.55 73.87-26.05 74.59-24.55 74.59-22.5L74.59-22.5 74.59-15.75Q74.59-14.6 73.92-13.7 73.25-12.8 71.45-12.8L71.45-12.8 60.65-12.8Q58.85-12.8 58.75-15.15L58.75-15.15Q58.75-17.5 60.65-17.5L60.65-17.5 69.15-17.5 69.09-22.15Q69.09-23.4 68.32-24.43 67.55-25.45 65.7-25.45L65.7-25.45 59.45-25.45Q57.6-25.45 56.82-24.43 56.05-23.4 56.05-22.15L56.05-22.15ZM86.34-22.75L86.34-2.1Q86.34 0.3 83.59 0.3L83.59 0.3Q80.74 0.3 80.74-2.1L80.74-2.1 80.74-22.8Q80.74-26.9 83.19-28.5L83.19-28.5Q85.64-30.1 88.84-30.1L88.84-30.1 94.54-30.1Q96.39-30.1 96.39-27.75L96.39-27.75Q96.49-25.4 94.54-25.4L94.54-25.4 89.24-25.4Q87.44-25.4 86.89-24.7 86.34-24 86.34-22.75L86.34-22.75ZM106.14-25.4L106.09-2.1Q106.09-0.9 105.24-0.3 104.39 0.3 103.39 0.3L103.39 0.3Q100.64 0.3 100.64-2.1L100.64-2.1 100.64-37.6Q100.64-40 103.39-40L103.39-40Q106.14-40 106.14-37.6L106.14-37.6 106.14-30.1 116.69-30.1Q119.24-30.1 121.99-28.2L121.99-28.2Q124.69-26.3 124.69-22.2L124.69-22.2 124.69-7.3Q124.69-3.15 122.24-1.6L122.24-1.6Q119.79 0 116.64 0L116.64 0 110.74 0Q108.94 0 108.84-2.35L108.84-2.35Q108.84-4.7 110.74-4.7L110.74-4.7 115.74-4.7Q117.59-4.7 118.39-5.38 119.19-6.05 119.19-7.35L119.19-7.35 119.19-21.75Q119.19-23.05 118.39-24.25L118.39-24.25 118.44-24.2Q117.79-25.4 115.79-25.4L115.79-25.4 106.14-25.4ZM144.94 0L138.39 0Q136.84 0 135.44-0.43 134.04-0.85 132.74-1.65L132.74-1.65 132.74-1.6Q130.29-3.15 130.29-7.3L130.29-7.3 130.29-9.75Q130.29-11.8 131.01-13.33 131.74-14.85 133.04-15.75L133.04-15.75 132.99-15.75Q134.24-16.6 135.64-17.03 137.04-17.45 138.34-17.45L138.34-17.45 149.39-17.45 149.39-22.1Q149.39-23.35 148.61-24.38 147.84-25.4 145.99-25.4L145.99-25.4 140.14-25.4Q138.24-25.4 137.51-24.48 136.79-23.55 136.79-22.3L136.79-22.3 136.79-21.9Q136.79-19.3 133.99-19.3L133.99-19.3Q131.19-19.3 131.19-21.9L131.19-21.9 131.19-22.35Q131.19-24.4 131.91-25.8 132.64-27.2 133.89-28.15L133.89-28.15 133.84-28.15Q135.14-29 136.56-29.55 137.99-30.1 139.29-30.1L139.29-30.1 146.89-30.1Q148.14-30.1 149.56-29.55 150.99-29 152.24-28.15L152.24-28.15 152.19-28.15Q153.49-27.2 154.19-25.68 154.89-24.15 154.89-22.15L154.89-22.15 154.89-2.1Q154.89 0.3 152.14 0.3L152.14 0.3Q151.59 0.3 151.11 0.25 150.64 0.2 150.26-0.03 149.89-0.25 149.66-0.68 149.44-1.1 149.44-1.8L149.44-1.8 149.39-12.75 139.29-12.75Q138.19-12.75 137.59-12.5 136.99-12.25 136.64-11.7L136.64-11.7Q136.24-10.85 136.06-10.38 135.89-9.9 135.89-9.3L135.89-9.3 135.89-7.35Q135.89-6.05 136.66-5.38 137.44-4.7 139.34-4.7L139.34-4.7 144.94-4.7Q146.79-4.7 146.79-2.35L146.79-2.35Q146.79-1.35 146.34-0.68 145.89 0 144.94 0L144.94 0ZM184.39 0.05L164.94 0.05Q163.09 0.05 162.44-0.9 161.79-1.85 161.79-3L161.79-3 161.79-37.55Q161.79-39.95 164.69-39.95L164.69-39.95Q167.69-39.95 167.69-37.55L167.69-37.55 167.69-5 184.39-5Q186.19-5 186.19-2.55L186.19-2.55Q186.29 0.05 184.39 0.05L184.39 0.05ZM195.98-27.9L195.98-2.1Q195.98 0.3 193.23 0.3L193.23 0.3Q190.43 0.3 190.43-2.1L190.43-2.1 190.43-27.9Q190.43-30.3 193.23-30.3L193.23-30.3Q195.98-30.3 195.98-27.9L195.98-27.9ZM197.03-36.6L197.03-36.6Q197.03-35 195.93-33.9 194.83-32.8 193.23-32.8L193.23-32.8Q191.63-32.8 190.51-33.9 189.38-35 189.38-36.6L189.38-36.6Q189.38-38.25 190.51-39.35 191.63-40.45 193.23-40.45L193.23-40.45Q194.83-40.45 195.93-39.35 197.03-38.25 197.03-36.6ZM209.88-25.4L209.88-2.1Q209.88 0.3 207.08 0.3L207.08 0.3Q204.33 0.3 204.33-2.1L204.33-2.1 204.33-25.4 201.93-25.4Q200.13-25.4 200.03-27.75L200.03-27.75Q200.03-30.1 201.93-30.1L201.93-30.1 204.33-30.1 204.33-32.5Q204.33-34.55 204.91-35.98 205.48-37.4 206.78-38.15L206.78-38.15 206.78-38.1Q208.08-38.9 209.46-39.35 210.83-39.8 212.38-39.8L212.38-39.8 213.58-39.8Q215.43-39.8 215.43-37.45L215.43-37.45Q215.53-35.1 213.58-35.1L213.58-35.1 212.78-35.1Q211.83-35.1 211.26-34.93 210.68-34.75 210.38-34.4 210.08-34.05 209.98-33.55 209.88-33.05 209.88-32.45L209.88-32.45 209.88-30.1 213.63-30.1Q215.58-30.1 215.48-27.75L215.48-27.75Q215.48-25.4 213.63-25.4L213.63-25.4 209.88-25.4ZM225.23-22.15L225.23-8Q225.23-6.8 226-5.75 226.78-4.7 228.63-4.7L228.63-4.7 234.88-4.7Q236.73-4.7 237.5-5.63 238.28-6.55 238.28-7.75L238.28-7.75 238.28-8.3Q238.28-10.65 241.03-10.65L241.03-10.65Q243.78-10.65 243.78-8.3L243.78-8.3 243.78-7.7Q243.78-5.6 243.1-4.25 242.43-2.9 241.08-1.9L241.08-1.9Q238.43 0 235.78 0L235.78 0 227.38 0Q224.73 0 222.23-1.9L222.23-1.9Q221.03-2.9 220.38-4.42 219.73-5.95 219.73-7.95L219.73-7.95 219.73-22.2Q219.73-26.25 222.23-28.2L222.23-28.2Q223.48-29.1 224.8-29.63 226.13-30.15 227.38-30.15L227.38-30.15 235.78-30.15Q236.98-30.15 238.43-29.68 239.88-29.2 241.13-28.4L241.13-28.4Q242.33-27.55 243.05-26.05 243.78-24.55 243.78-22.5L243.78-22.5 243.78-15.75Q243.78-14.6 243.1-13.7 242.43-12.8 240.63-12.8L240.63-12.8 229.83-12.8Q228.03-12.8 227.93-15.15L227.93-15.15Q227.93-17.5 229.83-17.5L229.83-17.5 238.33-17.5 238.28-22.15Q238.28-23.4 237.5-24.43 236.73-25.45 234.88-25.45L234.88-25.45 228.63-25.45Q226.78-25.45 226-24.43 225.23-23.4 225.23-22.15L225.23-22.15Z" opacity="1" transform="matrix(1,0,0,1,0,0)" fill="black" class="wordmark-text-0" id="SvgjsPath1496" stroke-width="7" stroke="black" stroke-linejoin="round"></path></svg></g></svg></g><g transform="matrix(1,0,0,1,3.5,73.55274154113452)"><svg viewBox="0 0 309.416 32.28712453808752" height="32.28712453808752" width="309.416"><g transform="matrix(1,0,0,1,0,0)"><svg width="309.416" viewBox="-3.6 -42.25 441.3 46.6" height="32.28712453808752" data-palette-color="#ffdc00"><path d="M35-38.05L35-38.05Q37.35-38.05 38.73-36.68 40.1-35.3 40.1-33.2L40.1-33.2Q40.1-29.4 37.4-27 34.7-24.6 30.25-22.5L30.25-22.5Q26.65-13.2 21.65 0L21.65 0 13.35 0Q11.65-23.8 11.33-27.68 11-31.55 10.63-32.25 10.25-32.95 9.2-32.95L9.2-32.95Q6.55-32.95 3.75-23.6L3.75-23.6Q1.35-24.75 0.4-25.3L0.4-25.3Q2.95-33.55 6.2-36.35L6.2-36.35Q8.4-38.25 11.45-38.25L11.45-38.25Q14.2-38.25 15.7-36.45 17.2-34.65 17.7-29.45L17.7-29.45Q17.95-26.7 18.43-18.68 18.9-10.65 19.1-8.05L19.1-8.05 19.4-8.05 27.05-29.3Q28.7-33.95 29.85-35.45L29.85-35.45Q31.75-38.05 35-38.05ZM36.7-31.75L36.7-31.75Q36.7-32.4 36.3-32.8 35.9-33.2 35.23-33.2 34.55-33.2 34.08-32.15 33.6-31.1 32-27.05L32-27.05Q36.7-29.5 36.7-31.75ZM81.19-23.55L81.19-23.55Q79.14-7.35 79.14-6.3L79.14-6.3Q79.14-4.3 80.59-4.3L80.59-4.3Q81.89-4.3 83.41-6.08 84.94-7.85 85.84-11.4L85.84-11.4Q87.49-9.6 87.84-8.6L87.84-8.6Q86.69-3.75 84.19-1.75 81.69 0.25 79.04 0.25L79.04 0.25Q74.69 0.25 73.19-3.1L73.19-3.1Q70.59 0.25 66.24 0.25L66.24 0.25Q62.64 0.25 60.69-1.55 58.74-3.35 58.74-6.25L58.74-6.25Q58.74-6.95 58.99-8.7L58.99-8.7Q60.14-18 60.74-23.5L60.74-23.5Q62.29-24.05 63.59-24.05 64.89-24.05 65.54-23.95 66.19-23.85 66.79-23.2 67.39-22.55 67.39-21.35L67.39-21.35 65.74-8.6Q65.64-8 65.64-7.5L65.64-7.5Q65.64-4.55 68.34-4.55L68.34-4.55Q70.84-4.55 72.49-7L72.49-7Q72.49-7.55 72.59-8.75L72.59-8.75 74.24-22.05Q74.59-22.9 75.74-23.48 76.89-24.05 78.61-24.05 80.34-24.05 81.19-23.55ZM117.13-11.2Q120.23-11.85 121.75-13.7 123.28-15.55 123.28-17.28 123.28-19 122.35-19.63 121.43-20.25 120.33-20.25L120.33-20.25Q117.98-20.25 116.2-17.63 114.43-15 114.43-11.38 114.43-7.75 116.15-5.98 117.88-4.2 120.43-4.2L120.43-4.2Q124.18-4.2 127.63-6.8 131.08-9.4 133.23-13.6L133.23-13.6Q134.33-12.55 135.23-11L135.23-11Q133.58-7.25 129.38-3.65L129.38-3.65Q127.28-1.9 124.4-0.8 121.53 0.3 118.48 0.3L118.48 0.3Q113.48 0.3 110.58-2.75L110.58-2.75Q107.48-6.05 107.48-11.2 107.48-16.35 111.35-20.2 115.23-24.05 120.63-24.05L120.63-24.05Q124.48-24.05 126.88-22.38 129.28-20.7 129.33-17.85L129.33-17.85Q129.33-14 126.25-11.6 123.18-9.2 117.83-8.25L117.83-8.25 117.13-11.2ZM161.44 0.35Q158.37 0.35 156.62-1.38 154.87-3.1 154.87-6.1L154.87-6.1Q154.87-6.9 157.57-29.85L157.57-29.85Q158.27-35.75 161.32-37.3L161.32-37.3Q162.72-38.05 164.67-38.05L164.67-38.05Q171.27-38.05 171.27-31.95L171.27-31.95Q171.27-31.45 171.22-30.9L171.22-30.9Q170.72-24.2 162.82-17.25L162.82-17.25Q162.57-14.8 162.27-12.5L162.27-12.5Q161.67-7.35 161.67-6.8L161.67-6.8Q161.67-4.2 163.92-4.2L163.92-4.2Q166.37-4.2 168.49-7.03 170.62-9.85 171.77-14.25L171.77-14.25Q172.22-14.1 173.02-13.43 173.82-12.75 174.12-12.25L174.12-12.25Q173.32-8.1 170.52-4.3L170.52-4.3Q169.12-2.35 166.97-1.1L166.97-1.1Q164.52 0.35 161.44 0.35ZM163.52-23.75L163.37-22.25Q167.97-27.3 167.97-31.3L167.97-31.3Q167.97-33.7 166.17-33.7L166.17-33.7Q165.02-33.6 164.64-32.2 164.27-30.8 163.94-27.65 163.62-24.5 163.52-23.75L163.52-23.75ZM215.86 0.25L215.86 0.25Q211.26 0.25 209.76-2.95L209.76-2.95Q207.16 0.3 203.08 0.3 199.01 0.3 196.23-2.45 193.46-5.2 193.46-9.7L193.46-9.7Q193.46-16.25 197.31-20.15 201.16-24.05 207.06-24.05L207.06-24.05Q207.21-24.05 207.36-24.05L207.36-24.05Q209.86-24.05 211.96-23.2L211.96-23.2Q213.31-24.05 215.23-24.05 217.16-24.05 218.01-23.55L218.01-23.55Q217.56-19.85 217.06-16.28 216.56-12.7 216.36-11.2L216.36-11.2Q215.91-7.8 215.91-6.3L215.91-6.3Q215.91-4.3 217.51-4.3L217.51-4.3Q218.76-4.3 220.16-5.98 221.56-7.65 222.61-11.25L222.61-11.25Q224.06-9.95 224.61-8.35L224.61-8.35Q223.16-3.6 220.71-1.68 218.26 0.25 215.86 0.25ZM207.81-20.15L207.81-20.15Q204.61-20.15 202.73-17.73 200.86-15.3 200.51-10.5L200.51-10.5Q200.46-10.05 200.46-9.65L200.46-9.65Q200.46-7.2 201.63-5.75 202.81-4.3 204.66-4.3L204.66-4.3Q207.81-4.3 209.41-8.75L209.41-8.75 210.61-19.55Q209.16-20.15 207.81-20.15ZM301.43 0.25L301.43 0.25Q296.83 0.25 295.33-2.95L295.33-2.95Q292.73 0.3 288.66 0.3 284.58 0.3 281.81-2.45 279.03-5.2 279.03-9.7L279.03-9.7Q279.03-16.25 282.88-20.15 286.73-24.05 292.63-24.05L292.63-24.05Q292.78-24.05 292.93-24.05L292.93-24.05Q295.43-24.05 297.53-23.2L297.53-23.2Q298.88-24.05 300.81-24.05 302.73-24.05 303.58-23.55L303.58-23.55Q303.13-19.85 302.63-16.28 302.13-12.7 301.93-11.2L301.93-11.2Q301.48-7.8 301.48-6.3L301.48-6.3Q301.48-4.3 303.08-4.3L303.08-4.3Q304.33-4.3 305.73-5.98 307.13-7.65 308.18-11.25L308.18-11.25Q309.63-9.95 310.18-8.35L310.18-8.35Q308.73-3.6 306.28-1.68 303.83 0.25 301.43 0.25ZM293.38-20.15L293.38-20.15Q290.18-20.15 288.31-17.73 286.43-15.3 286.08-10.5L286.08-10.5Q286.03-10.05 286.03-9.65L286.03-9.65Q286.03-7.2 287.21-5.75 288.38-4.3 290.23-4.3L290.23-4.3Q293.38-4.3 294.98-8.75L294.98-8.75 296.18-19.55Q294.73-20.15 293.38-20.15ZM336.9 0.35Q333.82 0.35 332.07-1.38 330.32-3.1 330.32-6.1L330.32-6.1Q330.32-6.9 333.02-29.85L333.02-29.85Q333.72-35.75 336.77-37.3L336.77-37.3Q338.17-38.05 340.12-38.05L340.12-38.05Q346.72-38.05 346.72-31.95L346.72-31.95Q346.72-31.45 346.67-30.9L346.67-30.9Q346.17-24.2 338.27-17.25L338.27-17.25Q338.02-14.8 337.72-12.5L337.72-12.5Q337.12-7.35 337.12-6.8L337.12-6.8Q337.12-4.2 339.37-4.2L339.37-4.2Q341.82-4.2 343.95-7.03 346.07-9.85 347.22-14.25L347.22-14.25Q347.67-14.1 348.47-13.43 349.27-12.75 349.57-12.25L349.57-12.25Q348.77-8.1 345.97-4.3L345.97-4.3Q344.57-2.35 342.42-1.1L342.42-1.1Q339.97 0.35 336.9 0.35ZM338.97-23.75L338.82-22.25Q343.42-27.3 343.42-31.3L343.42-31.3Q343.42-33.7 341.62-33.7L341.62-33.7Q340.47-33.6 340.1-32.2 339.72-30.8 339.4-27.65 339.07-24.5 338.97-23.75L338.97-23.75ZM380.36-34.8L380.36-34.8Q380.36-34.5 379.01-24.05L379.01-24.05 386.36-24.05 386.36-20.2 378.51-20.2 378.36-18.95Q384.21-14.05 384.21-8.25L384.21-8.25Q384.21-3.7 381.89-1.7 379.56 0.3 376.31 0.3 373.06 0.3 371.56-1.43 370.06-3.15 370.06-5.6L370.06-5.6Q370.06-6.15 370.16-6.8L370.16-6.8 371.71-20.1 371.51-20.2 367.46-20.2Q367.41-20.7 367.41-21.83 367.41-22.95 367.86-24.05L367.86-24.05 372.16-24.05 373.76-37.65Q374.81-38.05 376.56-38.05L376.56-38.05Q380.36-38.05 380.36-34.8ZM380.86-8.3L380.86-8.3Q380.86-11.75 377.86-15.1L377.86-15.1Q376.96-7.65 376.96-6.5L376.96-6.5Q376.96-4.25 378.41-4.25L378.41-4.25Q379.46-4.25 380.16-5.23 380.86-6.2 380.86-8.3ZM422.95-24.05L422.95-24.05Q427.55-24.05 430.62-21.1 433.7-18.15 433.7-13.9L433.7-13.9Q433.7-7.45 429.92-3.58 426.15 0.3 420.8 0.3 415.45 0.3 412.32-2.75 409.2-5.8 409.2-10.3L409.2-10.3Q409.2-16.6 413.05-20.3L413.05-20.3Q416.95-24.05 422.95-24.05ZM421.97-20Q419.6-20 418-17.3 416.4-14.6 416.25-10.5L416.25-10.5Q416.25-7.6 417.42-5.7 418.6-3.8 421-3.8 423.4-3.8 425.02-6.45 426.65-9.1 426.65-12.5 426.65-15.9 425.5-17.9L425.5-17.9Q424.35-20 421.97-20Z" opacity="1" transform="matrix(1,0,0,1,0,0)" fill="black" class="slogan-text-1" id="SvgjsPath1495" stroke-width="7" stroke="black" stroke-linejoin="round"></path></svg></g></svg></g></svg></g></svg></g></svg></g></svg></g></svg></g></mask><g transform="matrix(1,0,0,1,39.55199999999999,70.68006696038897)"><svg viewBox="0 0 316.416 105.83986607922205" height="105.83986607922205" width="316.416"><g><svg viewBox="0 0 316.416 105.83986607922205" height="105.83986607922205" width="316.416"><g><svg viewBox="0 0 316.416 105.83986607922205" height="105.83986607922205" width="316.416"><g><svg viewBox="0 0 316.416 105.83986607922205" height="105.83986607922205" width="316.416"><g id="textblocktransform"><svg viewBox="0 0 316.416 105.83986607922205" height="105.83986607922205" width="316.416" id="textblock"><g><svg viewBox="0 0 316.416 61.21905996758509" height="61.21905996758509" width="316.416"><g transform="matrix(1,0,0,1,0,0)"><svg width="316.416" viewBox="0 -44.45 247.78 48.75" height="61.21905996758509" data-palette-color="#ffdc00"><path d="M25.15-2.1L25.15-37.55Q25.15-39.95 28.1-39.95L28.1-39.95Q31.1-39.95 31.1-37.55L31.1-37.55 31.1-2.1Q31.1 0.3 28.1 0.3L28.1 0.3Q25.15 0.3 25.15-2.1L25.15-2.1ZM9.95-37.55L9.95-2.1Q9.95 0.3 6.95 0.3L6.95 0.3Q4 0.3 4-2.1L4-2.1 4-37.55Q4-39.95 6.95-39.95L6.95-39.95Q9.95-39.95 9.95-37.55L9.95-37.55ZM21.65-20.65L21.65-20.65Q21.65-18.9 20.45-17.7 19.25-16.5 17.5-16.5L17.5-16.5Q15.8-16.5 14.6-17.7 13.4-18.9 13.4-20.65L13.4-20.65Q13.4-22.4 14.6-23.6 15.8-24.8 17.5-24.8L17.5-24.8Q19.25-24.8 20.45-23.6 21.65-22.4 21.65-20.65ZM43.6-27.9L43.6-2.1Q43.6 0.3 40.85 0.3L40.85 0.3Q38.05 0.3 38.05-2.1L38.05-2.1 38.05-27.9Q38.05-30.3 40.85-30.3L40.85-30.3Q43.6-30.3 43.6-27.9L43.6-27.9ZM44.65-36.6L44.65-36.6Q44.65-35 43.55-33.9 42.45-32.8 40.85-32.8L40.85-32.8Q39.25-32.8 38.12-33.9 37-35 37-36.6L37-36.6Q37-38.25 38.12-39.35 39.25-40.45 40.85-40.45L40.85-40.45Q42.45-40.45 43.55-39.35 44.65-38.25 44.65-36.6ZM56.05-22.15L56.05-8Q56.05-6.8 56.82-5.75 57.6-4.7 59.45-4.7L59.45-4.7 65.7-4.7Q67.55-4.7 68.32-5.63 69.09-6.55 69.09-7.75L69.09-7.75 69.09-8.3Q69.09-10.65 71.84-10.65L71.84-10.65Q74.59-10.65 74.59-8.3L74.59-8.3 74.59-7.7Q74.59-5.6 73.92-4.25 73.25-2.9 71.9-1.9L71.9-1.9Q69.25 0 66.59 0L66.59 0 58.2 0Q55.55 0 53.05-1.9L53.05-1.9Q51.85-2.9 51.2-4.42 50.55-5.95 50.55-7.95L50.55-7.95 50.55-22.2Q50.55-26.25 53.05-28.2L53.05-28.2Q54.3-29.1 55.62-29.63 56.95-30.15 58.2-30.15L58.2-30.15 66.59-30.15Q67.8-30.15 69.25-29.68 70.7-29.2 71.95-28.4L71.95-28.4Q73.15-27.55 73.87-26.05 74.59-24.55 74.59-22.5L74.59-22.5 74.59-15.75Q74.59-14.6 73.92-13.7 73.25-12.8 71.45-12.8L71.45-12.8 60.65-12.8Q58.85-12.8 58.75-15.15L58.75-15.15Q58.75-17.5 60.65-17.5L60.65-17.5 69.15-17.5 69.09-22.15Q69.09-23.4 68.32-24.43 67.55-25.45 65.7-25.45L65.7-25.45 59.45-25.45Q57.6-25.45 56.82-24.43 56.05-23.4 56.05-22.15L56.05-22.15ZM86.34-22.75L86.34-2.1Q86.34 0.3 83.59 0.3L83.59 0.3Q80.74 0.3 80.74-2.1L80.74-2.1 80.74-22.8Q80.74-26.9 83.19-28.5L83.19-28.5Q85.64-30.1 88.84-30.1L88.84-30.1 94.54-30.1Q96.39-30.1 96.39-27.75L96.39-27.75Q96.49-25.4 94.54-25.4L94.54-25.4 89.24-25.4Q87.44-25.4 86.89-24.7 86.34-24 86.34-22.75L86.34-22.75ZM106.14-25.4L106.09-2.1Q106.09-0.9 105.24-0.3 104.39 0.3 103.39 0.3L103.39 0.3Q100.64 0.3 100.64-2.1L100.64-2.1 100.64-37.6Q100.64-40 103.39-40L103.39-40Q106.14-40 106.14-37.6L106.14-37.6 106.14-30.1 116.69-30.1Q119.24-30.1 121.99-28.2L121.99-28.2Q124.69-26.3 124.69-22.2L124.69-22.2 124.69-7.3Q124.69-3.15 122.24-1.6L122.24-1.6Q119.79 0 116.64 0L116.64 0 110.74 0Q108.94 0 108.84-2.35L108.84-2.35Q108.84-4.7 110.74-4.7L110.74-4.7 115.74-4.7Q117.59-4.7 118.39-5.38 119.19-6.05 119.19-7.35L119.19-7.35 119.19-21.75Q119.19-23.05 118.39-24.25L118.39-24.25 118.44-24.2Q117.79-25.4 115.79-25.4L115.79-25.4 106.14-25.4ZM144.94 0L138.39 0Q136.84 0 135.44-0.43 134.04-0.85 132.74-1.65L132.74-1.65 132.74-1.6Q130.29-3.15 130.29-7.3L130.29-7.3 130.29-9.75Q130.29-11.8 131.01-13.33 131.74-14.85 133.04-15.75L133.04-15.75 132.99-15.75Q134.24-16.6 135.64-17.03 137.04-17.45 138.34-17.45L138.34-17.45 149.39-17.45 149.39-22.1Q149.39-23.35 148.61-24.38 147.84-25.4 145.99-25.4L145.99-25.4 140.14-25.4Q138.24-25.4 137.51-24.48 136.79-23.55 136.79-22.3L136.79-22.3 136.79-21.9Q136.79-19.3 133.99-19.3L133.99-19.3Q131.19-19.3 131.19-21.9L131.19-21.9 131.19-22.35Q131.19-24.4 131.91-25.8 132.64-27.2 133.89-28.15L133.89-28.15 133.84-28.15Q135.14-29 136.56-29.55 137.99-30.1 139.29-30.1L139.29-30.1 146.89-30.1Q148.14-30.1 149.56-29.55 150.99-29 152.24-28.15L152.24-28.15 152.19-28.15Q153.49-27.2 154.19-25.68 154.89-24.15 154.89-22.15L154.89-22.15 154.89-2.1Q154.89 0.3 152.14 0.3L152.14 0.3Q151.59 0.3 151.11 0.25 150.64 0.2 150.26-0.03 149.89-0.25 149.66-0.68 149.44-1.1 149.44-1.8L149.44-1.8 149.39-12.75 139.29-12.75Q138.19-12.75 137.59-12.5 136.99-12.25 136.64-11.7L136.64-11.7Q136.24-10.85 136.06-10.38 135.89-9.9 135.89-9.3L135.89-9.3 135.89-7.35Q135.89-6.05 136.66-5.38 137.44-4.7 139.34-4.7L139.34-4.7 144.94-4.7Q146.79-4.7 146.79-2.35L146.79-2.35Q146.79-1.35 146.34-0.68 145.89 0 144.94 0L144.94 0ZM184.39 0.05L164.94 0.05Q163.09 0.05 162.44-0.9 161.79-1.85 161.79-3L161.79-3 161.79-37.55Q161.79-39.95 164.69-39.95L164.69-39.95Q167.69-39.95 167.69-37.55L167.69-37.55 167.69-5 184.39-5Q186.19-5 186.19-2.55L186.19-2.55Q186.29 0.05 184.39 0.05L184.39 0.05ZM195.98-27.9L195.98-2.1Q195.98 0.3 193.23 0.3L193.23 0.3Q190.43 0.3 190.43-2.1L190.43-2.1 190.43-27.9Q190.43-30.3 193.23-30.3L193.23-30.3Q195.98-30.3 195.98-27.9L195.98-27.9ZM197.03-36.6L197.03-36.6Q197.03-35 195.93-33.9 194.83-32.8 193.23-32.8L193.23-32.8Q191.63-32.8 190.51-33.9 189.38-35 189.38-36.6L189.38-36.6Q189.38-38.25 190.51-39.35 191.63-40.45 193.23-40.45L193.23-40.45Q194.83-40.45 195.93-39.35 197.03-38.25 197.03-36.6ZM209.88-25.4L209.88-2.1Q209.88 0.3 207.08 0.3L207.08 0.3Q204.33 0.3 204.33-2.1L204.33-2.1 204.33-25.4 201.93-25.4Q200.13-25.4 200.03-27.75L200.03-27.75Q200.03-30.1 201.93-30.1L201.93-30.1 204.33-30.1 204.33-32.5Q204.33-34.55 204.91-35.98 205.48-37.4 206.78-38.15L206.78-38.15 206.78-38.1Q208.08-38.9 209.46-39.35 210.83-39.8 212.38-39.8L212.38-39.8 213.58-39.8Q215.43-39.8 215.43-37.45L215.43-37.45Q215.53-35.1 213.58-35.1L213.58-35.1 212.78-35.1Q211.83-35.1 211.26-34.93 210.68-34.75 210.38-34.4 210.08-34.05 209.98-33.55 209.88-33.05 209.88-32.45L209.88-32.45 209.88-30.1 213.63-30.1Q215.58-30.1 215.48-27.75L215.48-27.75Q215.48-25.4 213.63-25.4L213.63-25.4 209.88-25.4ZM225.23-22.15L225.23-8Q225.23-6.8 226-5.75 226.78-4.7 228.63-4.7L228.63-4.7 234.88-4.7Q236.73-4.7 237.5-5.63 238.28-6.55 238.28-7.75L238.28-7.75 238.28-8.3Q238.28-10.65 241.03-10.65L241.03-10.65Q243.78-10.65 243.78-8.3L243.78-8.3 243.78-7.7Q243.78-5.6 243.1-4.25 242.43-2.9 241.08-1.9L241.08-1.9Q238.43 0 235.78 0L235.78 0 227.38 0Q224.73 0 222.23-1.9L222.23-1.9Q221.03-2.9 220.38-4.42 219.73-5.95 219.73-7.95L219.73-7.95 219.73-22.2Q219.73-26.25 222.23-28.2L222.23-28.2Q223.48-29.1 224.8-29.63 226.13-30.15 227.38-30.15L227.38-30.15 235.78-30.15Q236.98-30.15 238.43-29.68 239.88-29.2 241.13-28.4L241.13-28.4Q242.33-27.55 243.05-26.05 243.78-24.55 243.78-22.5L243.78-22.5 243.78-15.75Q243.78-14.6 243.1-13.7 242.43-12.8 240.63-12.8L240.63-12.8 229.83-12.8Q228.03-12.8 227.93-15.15L227.93-15.15Q227.93-17.5 229.83-17.5L229.83-17.5 238.33-17.5 238.28-22.15Q238.28-23.4 237.5-24.43 236.73-25.45 234.88-25.45L234.88-25.45 228.63-25.45Q226.78-25.45 226-24.43 225.23-23.4 225.23-22.15L225.23-22.15Z" opacity="1" transform="matrix(1,0,0,1,0,0)" fill="#000000" class="wordmark-text-0" data-fill-palette-color="primary" id="text-0"></path></svg></g></svg></g><g transform="matrix(1,0,0,1,3.5,73.55274154113452)"><svg viewBox="0 0 309.416 32.28712453808752" height="32.28712453808752" width="309.416"><g transform="matrix(1,0,0,1,0,0)"><svg width="309.416" viewBox="-3.6 -42.25 441.3 46.6" height="32.28712453808752" data-palette-color="#ffdc00"><path d="M35-38.05L35-38.05Q37.35-38.05 38.73-36.68 40.1-35.3 40.1-33.2L40.1-33.2Q40.1-29.4 37.4-27 34.7-24.6 30.25-22.5L30.25-22.5Q26.65-13.2 21.65 0L21.65 0 13.35 0Q11.65-23.8 11.33-27.68 11-31.55 10.63-32.25 10.25-32.95 9.2-32.95L9.2-32.95Q6.55-32.95 3.75-23.6L3.75-23.6Q1.35-24.75 0.4-25.3L0.4-25.3Q2.95-33.55 6.2-36.35L6.2-36.35Q8.4-38.25 11.45-38.25L11.45-38.25Q14.2-38.25 15.7-36.45 17.2-34.65 17.7-29.45L17.7-29.45Q17.95-26.7 18.43-18.68 18.9-10.65 19.1-8.05L19.1-8.05 19.4-8.05 27.05-29.3Q28.7-33.95 29.85-35.45L29.85-35.45Q31.75-38.05 35-38.05ZM36.7-31.75L36.7-31.75Q36.7-32.4 36.3-32.8 35.9-33.2 35.23-33.2 34.55-33.2 34.08-32.15 33.6-31.1 32-27.05L32-27.05Q36.7-29.5 36.7-31.75ZM81.19-23.55L81.19-23.55Q79.14-7.35 79.14-6.3L79.14-6.3Q79.14-4.3 80.59-4.3L80.59-4.3Q81.89-4.3 83.41-6.08 84.94-7.85 85.84-11.4L85.84-11.4Q87.49-9.6 87.84-8.6L87.84-8.6Q86.69-3.75 84.19-1.75 81.69 0.25 79.04 0.25L79.04 0.25Q74.69 0.25 73.19-3.1L73.19-3.1Q70.59 0.25 66.24 0.25L66.24 0.25Q62.64 0.25 60.69-1.55 58.74-3.35 58.74-6.25L58.74-6.25Q58.74-6.95 58.99-8.7L58.99-8.7Q60.14-18 60.74-23.5L60.74-23.5Q62.29-24.05 63.59-24.05 64.89-24.05 65.54-23.95 66.19-23.85 66.79-23.2 67.39-22.55 67.39-21.35L67.39-21.35 65.74-8.6Q65.64-8 65.64-7.5L65.64-7.5Q65.64-4.55 68.34-4.55L68.34-4.55Q70.84-4.55 72.49-7L72.49-7Q72.49-7.55 72.59-8.75L72.59-8.75 74.24-22.05Q74.59-22.9 75.74-23.48 76.89-24.05 78.61-24.05 80.34-24.05 81.19-23.55ZM117.13-11.2Q120.23-11.85 121.75-13.7 123.28-15.55 123.28-17.28 123.28-19 122.35-19.63 121.43-20.25 120.33-20.25L120.33-20.25Q117.98-20.25 116.2-17.63 114.43-15 114.43-11.38 114.43-7.75 116.15-5.98 117.88-4.2 120.43-4.2L120.43-4.2Q124.18-4.2 127.63-6.8 131.08-9.4 133.23-13.6L133.23-13.6Q134.33-12.55 135.23-11L135.23-11Q133.58-7.25 129.38-3.65L129.38-3.65Q127.28-1.9 124.4-0.8 121.53 0.3 118.48 0.3L118.48 0.3Q113.48 0.3 110.58-2.75L110.58-2.75Q107.48-6.05 107.48-11.2 107.48-16.35 111.35-20.2 115.23-24.05 120.63-24.05L120.63-24.05Q124.48-24.05 126.88-22.38 129.28-20.7 129.33-17.85L129.33-17.85Q129.33-14 126.25-11.6 123.18-9.2 117.83-8.25L117.83-8.25 117.13-11.2ZM161.44 0.35Q158.37 0.35 156.62-1.38 154.87-3.1 154.87-6.1L154.87-6.1Q154.87-6.9 157.57-29.85L157.57-29.85Q158.27-35.75 161.32-37.3L161.32-37.3Q162.72-38.05 164.67-38.05L164.67-38.05Q171.27-38.05 171.27-31.95L171.27-31.95Q171.27-31.45 171.22-30.9L171.22-30.9Q170.72-24.2 162.82-17.25L162.82-17.25Q162.57-14.8 162.27-12.5L162.27-12.5Q161.67-7.35 161.67-6.8L161.67-6.8Q161.67-4.2 163.92-4.2L163.92-4.2Q166.37-4.2 168.49-7.03 170.62-9.85 171.77-14.25L171.77-14.25Q172.22-14.1 173.02-13.43 173.82-12.75 174.12-12.25L174.12-12.25Q173.32-8.1 170.52-4.3L170.52-4.3Q169.12-2.35 166.97-1.1L166.97-1.1Q164.52 0.35 161.44 0.35ZM163.52-23.75L163.37-22.25Q167.97-27.3 167.97-31.3L167.97-31.3Q167.97-33.7 166.17-33.7L166.17-33.7Q165.02-33.6 164.64-32.2 164.27-30.8 163.94-27.65 163.62-24.5 163.52-23.75L163.52-23.75ZM215.86 0.25L215.86 0.25Q211.26 0.25 209.76-2.95L209.76-2.95Q207.16 0.3 203.08 0.3 199.01 0.3 196.23-2.45 193.46-5.2 193.46-9.7L193.46-9.7Q193.46-16.25 197.31-20.15 201.16-24.05 207.06-24.05L207.06-24.05Q207.21-24.05 207.36-24.05L207.36-24.05Q209.86-24.05 211.96-23.2L211.96-23.2Q213.31-24.05 215.23-24.05 217.16-24.05 218.01-23.55L218.01-23.55Q217.56-19.85 217.06-16.28 216.56-12.7 216.36-11.2L216.36-11.2Q215.91-7.8 215.91-6.3L215.91-6.3Q215.91-4.3 217.51-4.3L217.51-4.3Q218.76-4.3 220.16-5.98 221.56-7.65 222.61-11.25L222.61-11.25Q224.06-9.95 224.61-8.35L224.61-8.35Q223.16-3.6 220.71-1.68 218.26 0.25 215.86 0.25ZM207.81-20.15L207.81-20.15Q204.61-20.15 202.73-17.73 200.86-15.3 200.51-10.5L200.51-10.5Q200.46-10.05 200.46-9.65L200.46-9.65Q200.46-7.2 201.63-5.75 202.81-4.3 204.66-4.3L204.66-4.3Q207.81-4.3 209.41-8.75L209.41-8.75 210.61-19.55Q209.16-20.15 207.81-20.15ZM301.43 0.25L301.43 0.25Q296.83 0.25 295.33-2.95L295.33-2.95Q292.73 0.3 288.66 0.3 284.58 0.3 281.81-2.45 279.03-5.2 279.03-9.7L279.03-9.7Q279.03-16.25 282.88-20.15 286.73-24.05 292.63-24.05L292.63-24.05Q292.78-24.05 292.93-24.05L292.93-24.05Q295.43-24.05 297.53-23.2L297.53-23.2Q298.88-24.05 300.81-24.05 302.73-24.05 303.58-23.55L303.58-23.55Q303.13-19.85 302.63-16.28 302.13-12.7 301.93-11.2L301.93-11.2Q301.48-7.8 301.48-6.3L301.48-6.3Q301.48-4.3 303.08-4.3L303.08-4.3Q304.33-4.3 305.73-5.98 307.13-7.65 308.18-11.25L308.18-11.25Q309.63-9.95 310.18-8.35L310.18-8.35Q308.73-3.6 306.28-1.68 303.83 0.25 301.43 0.25ZM293.38-20.15L293.38-20.15Q290.18-20.15 288.31-17.73 286.43-15.3 286.08-10.5L286.08-10.5Q286.03-10.05 286.03-9.65L286.03-9.65Q286.03-7.2 287.21-5.75 288.38-4.3 290.23-4.3L290.23-4.3Q293.38-4.3 294.98-8.75L294.98-8.75 296.18-19.55Q294.73-20.15 293.38-20.15ZM336.9 0.35Q333.82 0.35 332.07-1.38 330.32-3.1 330.32-6.1L330.32-6.1Q330.32-6.9 333.02-29.85L333.02-29.85Q333.72-35.75 336.77-37.3L336.77-37.3Q338.17-38.05 340.12-38.05L340.12-38.05Q346.72-38.05 346.72-31.95L346.72-31.95Q346.72-31.45 346.67-30.9L346.67-30.9Q346.17-24.2 338.27-17.25L338.27-17.25Q338.02-14.8 337.72-12.5L337.72-12.5Q337.12-7.35 337.12-6.8L337.12-6.8Q337.12-4.2 339.37-4.2L339.37-4.2Q341.82-4.2 343.95-7.03 346.07-9.85 347.22-14.25L347.22-14.25Q347.67-14.1 348.47-13.43 349.27-12.75 349.57-12.25L349.57-12.25Q348.77-8.1 345.97-4.3L345.97-4.3Q344.57-2.35 342.42-1.1L342.42-1.1Q339.97 0.35 336.9 0.35ZM338.97-23.75L338.82-22.25Q343.42-27.3 343.42-31.3L343.42-31.3Q343.42-33.7 341.62-33.7L341.62-33.7Q340.47-33.6 340.1-32.2 339.72-30.8 339.4-27.65 339.07-24.5 338.97-23.75L338.97-23.75ZM380.36-34.8L380.36-34.8Q380.36-34.5 379.01-24.05L379.01-24.05 386.36-24.05 386.36-20.2 378.51-20.2 378.36-18.95Q384.21-14.05 384.21-8.25L384.21-8.25Q384.21-3.7 381.89-1.7 379.56 0.3 376.31 0.3 373.06 0.3 371.56-1.43 370.06-3.15 370.06-5.6L370.06-5.6Q370.06-6.15 370.16-6.8L370.16-6.8 371.71-20.1 371.51-20.2 367.46-20.2Q367.41-20.7 367.41-21.83 367.41-22.95 367.86-24.05L367.86-24.05 372.16-24.05 373.76-37.65Q374.81-38.05 376.56-38.05L376.56-38.05Q380.36-38.05 380.36-34.8ZM380.86-8.3L380.86-8.3Q380.86-11.75 377.86-15.1L377.86-15.1Q376.96-7.65 376.96-6.5L376.96-6.5Q376.96-4.25 378.41-4.25L378.41-4.25Q379.46-4.25 380.16-5.23 380.86-6.2 380.86-8.3ZM422.95-24.05L422.95-24.05Q427.55-24.05 430.62-21.1 433.7-18.15 433.7-13.9L433.7-13.9Q433.7-7.45 429.92-3.58 426.15 0.3 420.8 0.3 415.45 0.3 412.32-2.75 409.2-5.8 409.2-10.3L409.2-10.3Q409.2-16.6 413.05-20.3L413.05-20.3Q416.95-24.05 422.95-24.05ZM421.97-20Q419.6-20 418-17.3 416.4-14.6 416.25-10.5L416.25-10.5Q416.25-7.6 417.42-5.7 418.6-3.8 421-3.8 423.4-3.8 425.02-6.45 426.65-9.1 426.65-12.5 426.65-15.9 425.5-17.9L425.5-17.9Q424.35-20 421.97-20Z" opacity="1" transform="matrix(1,0,0,1,0,0)" fill="#000000" class="slogan-text-1" data-fill-palette-color="secondary" id="text-1"></path></svg></g></svg></g></svg></g></svg></g></svg></g></svg></g></svg></g><g mask="url(#c0d7b809-3b89-41b5-8a6f-d3db468ac4bb)"><g transform="matrix(2.6272789126579754, 0, 0, 2.6272789126579754, 77.16244149159071, 1)"><svg xmlns="http://www.w3.org/2000/svg" xmlns:xlink="http://www.w3.org/1999/xlink" version="1.1" x="0" y="0" viewBox="4.095374462253386 3.336499999999994 91.8041536643726 93.32850000000005" enable-background="new 0 0 100 100" xml:space="preserve" height="93.32850000000005" width="91.8041536643726" class="icon-none" data-fill-palette-color="accent" id="none"><path d="M95.178 66.102c0 0-0.239-0.09-0.71-0.22-0.114-0.028-0.246-0.063-0.396-0.105-0.349-0.097-0.779-0.215-1.251-0.31-1.226-0.265-3.222-0.613-5.778-0.766-2.378-0.148-5.086-0.092-7.799 0.163-2.723 0.259-5.608 0.768-8.582 1.513-1.638 0.419-3.225 0.891-4.742 1.41 0.225-0.225 0.442-0.444 0.654-0.661 2.521-2.571 5.032-5.501 7.466-8.708 2.424-3.221 4.559-6.435 6.346-9.552 1.784-3.126 3.342-6.286 4.504-9.134 1.265-3.075 2.011-5.554 2.409-7.083 0.172-0.616 0.288-1.167 0.401-1.704l0.099-0.456c0.112-0.54 0.153-0.844 0.153-0.847 0.05-0.395-0.116-0.79-0.436-1.033-0.312-0.234-0.737-0.292-1.11-0.136 0 0-0.283 0.121-0.804 0.392-0.129 0.072-0.282 0.151-0.465 0.247-0.403 0.211-0.901 0.471-1.434 0.794-1.374 0.805-3.562 2.195-6.178 4.245-2.436 1.898-5.055 4.253-7.574 6.813-2.511 2.554-5.025 5.48-7.478 8.698-1.919 2.537-3.658 5.075-5.188 7.57 0.097-0.662 0.186-1.326 0.267-1.986 0.539-4.299 0.813-8.929 0.817-13.763-0.016-4.863-0.297-9.491-0.836-13.755-0.504-4.076-1.288-8.234-2.269-12.023-0.996-3.854-2.062-6.773-2.78-8.541-0.775-1.935-1.388-3.091-1.506-3.31-0.377-0.688-1.577-0.694-1.96 0.006-0.114 0.212-0.727 1.369-1.5 3.299-0.719 1.769-1.783 4.687-2.783 8.545-0.979 3.789-1.764 7.947-2.268 12.021-0.54 4.268-0.821 8.897-0.836 13.761 0.002 4.822 0.277 9.451 0.817 13.758 0.081 0.658 0.169 1.321 0.266 1.988-1.531-2.496-3.27-5.034-5.189-7.573-2.444-3.208-4.959-6.133-7.475-8.695-2.529-2.567-5.148-4.923-7.574-6.811-2.617-2.051-4.802-3.439-6.165-4.239-0.548-0.333-1.048-0.595-1.468-0.812-0.169-0.088-0.319-0.167-0.473-0.252-0.492-0.256-0.774-0.376-0.776-0.377-0.365-0.153-0.794-0.102-1.11 0.138-0.317 0.241-0.484 0.636-0.434 1.035 0 0 0.039 0.305 0.16 0.874l0.108 0.503c0.094 0.449 0.21 1.003 0.38 1.609 0.566 2.17 1.423 4.691 2.412 7.096 1.161 2.85 2.719 6.01 4.507 9.14 1.782 3.112 3.917 6.327 6.347 9.554 2.432 3.207 4.943 6.134 7.461 8.701 0.211 0.219 0.43 0.44 0.656 0.665-1.521-0.521-3.109-0.994-4.748-1.411-2.965-0.744-5.852-1.252-8.577-1.513-2.706-0.252-5.421-0.309-7.794-0.162-2.559 0.152-4.552 0.499-5.765 0.763-0.493 0.099-0.925 0.218-1.331 0.329-0.125 0.035-0.239 0.066-0.37 0.098-0.435 0.121-0.673 0.21-0.673 0.21C4.48 66.229 4.22 66.518 4.13 66.872c-0.091 0.357 0 0.735 0.242 1.011 0 0 0.166 0.192 0.515 0.527 0.083 0.076 0.178 0.166 0.299 0.285 0.263 0.252 0.582 0.561 0.952 0.867 0.947 0.818 2.533 2.08 4.711 3.436 2.014 1.266 4.409 2.506 6.928 3.584 2.511 1.07 5.289 2.004 8.259 2.771 2.959 0.75 5.844 1.264 8.575 1.525 0.164 0.014 0.329 0.029 0.494 0.045-0.498 0.262-0.986 0.533-1.462 0.812-1.745 1.008-3.446 2.174-5.056 3.465-1.457 1.166-2.844 2.465-4.014 3.758-1.218 1.344-2.055 2.51-2.543 3.254-0.541 0.832-0.844 1.414-0.873 1.477-0.17 0.336-0.159 0.732 0.03 1.064 0.189 0.324 0.527 0.531 0.902 0.555 0.001 0 0.626 0.037 1.724-0.023 0.891-0.055 2.322-0.199 4.082-0.586 1.709-0.371 3.527-0.928 5.258-1.611 1.92-0.752 3.776-1.646 5.515-2.654 3.363-1.924 6.633-4.514 8.988-7.117 0.041 0.344 0.078 0.693 0.111 1.045 0.076 0.984 0.145 2.037 0.12 3.072 0.001 0.951-0.083 1.961-0.252 3.029-0.027 0.262-0.093 0.502-0.16 0.77-0.047 0.18-0.093 0.361-0.126 0.523-0.051 0.227-0.13 0.43-0.217 0.662-0.062 0.16-0.121 0.318-0.169 0.467-0.056 0.168-0.139 0.311-0.232 0.479-0.073 0.131-0.144 0.26-0.213 0.4-0.08 0.18-0.197 0.324-0.338 0.498l-0.467 0.602c-0.355 0.457-0.306 1.1 0.114 1.496 0.207 0.197 0.479 0.305 0.766 0.305 0.27 0 0.53-0.096 0.736-0.275l0.581-0.51c0.203-0.176 0.512-0.439 0.776-0.812 0.048-0.066 0.104-0.131 0.193-0.238 0.176-0.211 0.394-0.473 0.582-0.811 0.052-0.096 0.112-0.191 0.206-0.346 0.181-0.295 0.368-0.605 0.527-0.969 0.056-0.133 0.118-0.268 0.193-0.428 0.151-0.32 0.321-0.684 0.426-1.039 0.408-1.119 0.735-2.295 0.943-3.387 0.253-1.189 0.399-2.355 0.521-3.447 0.033-0.355 0.063-0.709 0.09-1.057 2.357 2.598 5.613 5.174 8.955 7.084 1.747 1.012 3.604 1.906 5.52 2.658 1.735 0.684 3.553 1.24 5.257 1.611 1.766 0.387 3.197 0.531 4.09 0.586 1.083 0.061 1.718 0.023 1.72 0.023 0.375-0.023 0.713-0.23 0.903-0.559 0.188-0.328 0.199-0.725 0.037-1.043-0.037-0.08-0.34-0.662-0.883-1.5-0.488-0.742-1.325-1.906-2.54-3.246-1.172-1.297-2.561-2.596-4.016-3.76-1.605-1.287-3.304-2.453-5.048-3.459-0.478-0.281-0.969-0.555-1.471-0.818 0.166-0.016 0.331-0.031 0.495-0.045 2.732-0.262 5.617-0.777 8.578-1.527 2.969-0.766 5.746-1.699 8.257-2.771 2.515-1.076 4.91-2.314 6.925-3.58 2.173-1.355 3.758-2.613 4.697-3.424 0.393-0.328 0.72-0.643 0.985-0.898 0.104-0.102 0.198-0.193 0.307-0.291 0.321-0.312 0.488-0.504 0.489-0.504 0.243-0.276 0.332-0.654 0.24-1.009C95.779 66.519 95.521 66.229 95.178 66.102zM60.357 78.887h-0.208c-0.537 0-0.998 0.383-1.096 0.91-0.101 0.529 0.192 1.055 0.697 1.248 1.933 0.738 3.778 1.621 5.491 2.625 1.646 0.951 3.253 2.053 4.776 3.273 1.361 1.088 2.659 2.303 3.755 3.516 0.938 1.033 1.627 1.951 2.051 2.562-0.804-0.07-1.916-0.211-3.246-0.504-1.587-0.344-3.287-0.865-4.916-1.506-1.813-0.713-3.569-1.559-5.223-2.518-3.206-1.832-6.315-4.301-8.532-6.775-0.575-0.635-1.109-1.287-1.633-1.996-0.21-0.283-0.546-0.451-0.896-0.451-0.117 0-0.232 0.018-0.347 0.055-0.456 0.15-0.765 0.574-0.769 1.055-0.002 0.293-0.009 0.609-0.02 0.957-0.023 0.857-0.088 1.84-0.184 2.834-0.013 0.119-0.026 0.24-0.04 0.361C50.01 84.412 50 84.291 49.992 84.17c-0.093-0.984-0.214-1.955-0.351-2.809-0.051-0.312-0.1-0.596-0.147-0.865-0.078-0.436-0.407-0.783-0.833-0.887-0.418-0.1-0.886 0.059-1.152 0.408-0.445 0.582-0.922 1.154-1.419 1.707-2.215 2.471-5.325 4.938-8.535 6.773-1.646 0.957-3.402 1.801-5.219 2.514-1.625 0.641-3.324 1.162-4.916 1.508-1.354 0.297-2.498 0.436-3.24 0.5 0.424-0.611 1.111-1.527 2.049-2.562 1.095-1.211 2.393-2.426 3.754-3.514 1.521-1.221 3.128-2.32 4.783-3.277 1.708-1.002 3.554-1.883 5.484-2.623 0.505-0.191 0.798-0.717 0.697-1.244-0.096-0.523-0.564-0.873-1.1-0.912h-0.203c-1.602 0-3.223-0.076-4.82-0.23-2.617-0.25-5.389-0.744-8.234-1.465-2.857-0.738-5.526-1.635-7.934-2.662-2.41-1.031-4.7-2.215-6.623-3.422-2.164-1.35-3.713-2.609-4.45-3.245-0.063-0.053-0.126-0.105-0.186-0.159 0.083-0.019 0.169-0.037 0.259-0.055 0.938-0.203 2.893-0.569 5.442-0.72 2.251-0.142 4.84-0.086 7.448 0.157 2.611 0.248 5.384 0.738 8.239 1.453 2.845 0.727 5.516 1.617 7.938 2.646 0.76 0.324 1.489 0.662 2.203 1.006 0.496 0.236 1.124 0.057 1.418-0.396 0.308-0.469 0.217-1.096-0.21-1.459-0.452-0.385-0.903-0.77-1.355-1.172-1.05-0.957-2.425-2.229-3.759-3.602-2.453-2.501-4.901-5.358-7.276-8.487-2.37-3.148-4.453-6.283-6.189-9.316-1.741-3.048-3.255-6.118-4.379-8.877-1.282-3.118-2.005-5.613-2.325-6.831-0.044-0.164-0.086-0.323-0.123-0.478 0.141 0.08 0.288 0.165 0.439 0.257 1.079 0.632 3.284 2.004 5.936 4.082 2.351 1.83 4.896 4.118 7.356 6.616 2.45 2.497 4.903 5.351 7.289 8.481 2.366 3.128 4.452 6.26 6.203 9.312 0.778 1.341 1.453 2.642 2.065 3.845 0.247 0.49 0.836 0.736 1.37 0.547 0.527-0.188 0.835-0.743 0.715-1.289-0.611-2.812-1.096-5.656-1.438-8.454-0.528-4.215-0.798-8.75-0.8-13.48 0.013-4.764 0.288-9.301 0.818-13.487 0.493-3.988 1.259-8.047 2.216-11.739 1.017-3.932 2.12-6.868 2.688-8.27C49.731 7.633 49.87 7.301 50 6.999c0.131 0.303 0.271 0.637 0.415 0.999 0.694 1.713 1.724 4.538 2.687 8.266 0.957 3.693 1.722 7.752 2.216 11.741 0.528 4.184 0.805 8.72 0.818 13.48-0.003 4.741-0.272 9.278-0.8 13.486-0.346 2.81-0.829 5.652-1.438 8.449-0.12 0.547 0.188 1.102 0.717 1.29 0.516 0.182 1.118-0.055 1.369-0.548 0.572-1.127 1.266-2.466 2.065-3.846 1.749-3.049 3.835-6.18 6.199-9.305 2.391-3.136 4.844-5.99 7.292-8.483 2.455-2.494 5-4.783 7.358-6.62 2.647-2.075 4.857-3.449 5.945-4.087 0.147-0.089 0.29-0.172 0.427-0.25-0.038 0.158-0.081 0.323-0.128 0.494-0.318 1.213-1.042 3.711-2.32 6.819-1.131 2.768-2.645 5.836-4.377 8.873-1.737 3.031-3.82 6.165-6.189 9.313-2.376 3.133-4.824 5.989-7.282 8.495-1.351 1.39-2.714 2.65-3.746 3.59-0.434 0.387-0.859 0.752-1.363 1.182-0.425 0.361-0.516 0.988-0.211 1.457 0.297 0.457 0.931 0.633 1.419 0.396 0.714-0.344 1.443-0.682 2.203-1.006 2.418-1.027 5.087-1.918 7.934-2.646 2.857-0.715 5.63-1.205 8.241-1.452 2.604-0.244 5.187-0.301 7.454-0.158 2.543 0.15 4.505 0.517 5.456 0.724 0.082 0.017 0.162 0.032 0.241 0.051-0.064 0.056-0.131 0.112-0.199 0.172-0.729 0.627-2.273 1.883-4.438 3.234-1.92 1.203-4.209 2.387-6.62 3.42-2.408 1.027-5.078 1.924-7.932 2.66-2.846 0.723-5.617 1.215-8.238 1.467C63.579 78.811 61.958 78.887 60.357 78.887z" fill="#000000" data-fill-palette-color="accent"></path></svg></g></g></svg></g><defs></defs></svg><rect width="395.52" height="247.2" fill="none" stroke="none" visibility="hidden"></rect></g></svg></g></svg>